<svg xmlns="http://www.w3.org/2000/svg" width="187.000000pt" height="188.000000pt" viewBox="0 0 187.000000 188.000000" preserveAspectRatio="xMidYMid meet"><g transform="translate(0.000000,188.000000) scale(0.100000,-0.100000)" fill="#000000" stroke="none"><path d="M760 965 c0 -265 1 -285 18 -285 9 1 123 61 252 134 173 98 235 138 235 151 0 14 -61 54 -235 151 -129 73 -243 133 -252 134 -17 0 -18 -20 -18 -285z m248 105 c100 -56 182 -103 182 -105 0 -2 -220 -127 -372 -212 -5 -2 -8 93 -8 212 0 119 3 214 8 212 4 -2 89 -50 190 -107z"></path></g></svg>